<svg xmlns="http://www.w3.org/2000/svg" width="45.161" height="38" viewBox="0 0 45.161 38"><defs><style>.a{fill:#004291;}.b{fill:#009ddc;}.c{fill:#34b4e9;}</style></defs><g transform="translate(-84 -16)"><g transform="translate(84 16)"><path class="a" d="M127.467,314.471c1.407,1.2,2.672,2.642,5.367,2.837,7.129.331,10.05-6.241,6.346-11.6l-.484-.728a13.962,13.962,0,0,0-19.744-.314l-.156.153-.618.618.035-.034Z" transform="translate(-95.631 -279.326)"/><path class="b" d="M102.036,309.483a13.963,13.963,0,0,1,19.745-.313l.155.152.581.583.583-.583a13.962,13.962,0,0,1,19.746.005c.051.051.1.1.153.156l-15.182-22.869a6.436,6.436,0,0,0-10.6,0Z" transform="translate(-99.933 -283.829)"/><path class="c" d="M102.472,304.978l-.484.729a9.507,9.507,0,0,0-1.083,2.05,7.25,7.25,0,0,0,.2,5.884,6.305,6.305,0,0,0,1.118,1.555,6.432,6.432,0,0,0,.741.647,7.008,7.008,0,0,0,1.826.976,9.166,9.166,0,0,0,3.546.489c2.7-.2,3.961-1.634,5.367-2.837l9.216-9.035.035-.035-.581-.583a13.963,13.963,0,0,0-19.748.006Z" transform="translate(-100.375 -279.326)"/><g transform="translate(36.718 0.002)"><rect class="a" width="8.443" height="8.443" rx="4"/></g></g></g></svg>